# Blender v2.93.0 OBJ File: 'proyecto_parada.blend'
# www.blender.org
mtllib parada.mtl
o Cube
v -2961.169434 67.250473 -1994.292847
v -2961.419434 15.116343 -1977.585693
v -2769.316895 67.250473 -1991.423218
v -2769.566650 15.116343 -1974.716187
v -2961.703613 67.250473 -1958.575806
v -2961.703613 15.116343 -1958.575806
v -2769.851074 67.250473 -1955.706299
v -2769.851074 15.116343 -1955.706299
v -2770.974121 171.765442 -1999.796265
v -2771.108887 182.669556 -1990.787109
v -2962.826904 171.765442 -2002.665894
v -2962.961426 181.564789 -1993.656738
v -2769.933105 173.336029 -2046.466064
v -2769.975830 183.697723 -2043.619995
v -2961.785889 173.336029 -2049.335693
v -2961.828369 182.592957 -2046.489502
v -2961.419434 49.527721 -1977.585693
v -2769.851074 49.527721 -1955.706299
v -2769.566650 49.527721 -1974.716187
v -2961.703613 49.527721 -1958.575806
v -2784.110352 15.116343 -1955.919556
v -2783.576172 67.250473 -1991.636597
v -2784.110352 67.250473 -1955.919556
v -2783.825928 15.116343 -1974.929443
v -2785.233398 171.765442 -2000.009644
v -2785.368164 181.145142 -1991.000488
v -2784.192383 173.336029 -2046.679321
v -2784.235107 182.173309 -2043.833252
v -2783.825928 49.527721 -1974.929443
v -2784.110352 49.527721 -1955.919556
v -2942.507080 67.250473 -1958.288696
v -2942.222656 15.116343 -1977.298584
v -2943.764893 181.145142 -1993.369629
v -2942.631836 182.173309 -2046.202393
v -2942.507080 49.527721 -1958.288696
v -2942.507080 15.116343 -1958.288696
v -2941.972900 67.250473 -1994.005737
v -2943.630127 171.765442 -2002.378784
v -2942.589111 173.336029 -2049.048584
v -2942.222656 49.527721 -1977.298584
v -2782.409180 67.250473 -2046.722168
v -2768.149902 67.250473 -2046.508789
v -2960.002441 67.250473 -2049.378418
v -2960.002441 49.527721 -2049.378418
v -2768.149902 49.527721 -2046.508789
v -2782.409180 49.527721 -2046.722168
v -2940.805908 67.250473 -2049.091309
v -2940.805908 49.527721 -2049.091309
v -2768.417725 49.527721 -2028.603638
v -2768.417725 67.250473 -2028.603638
v -2782.677002 49.527721 -2028.816895
v -2782.677002 67.250473 -2028.816895
v -2960.321045 67.250473 -2028.078247
v -2960.321045 49.527721 -2028.078247
v -2941.124512 67.250473 -2027.791016
v -2941.124512 49.527721 -2027.791016
v -2782.989014 173.681366 -2046.693970
v -2768.729736 173.681366 -2046.480713
v -2960.582275 173.681366 -2049.350342
v -2941.385742 173.681366 -2049.062988
v -2960.900879 173.681366 -2028.050049
v -2783.256836 173.681366 -2028.788696
v -2941.704346 173.681366 -2027.762939
v -2768.997559 173.681366 -2028.575439
v -2782.425049 15.442131 -2046.690796
v -2768.165771 15.442131 -2046.477539
v -2960.018555 15.442131 -2049.347168
v -2940.821777 15.442131 -2049.060059
v -2768.433594 15.442131 -2028.572266
v -2782.692871 15.442131 -2028.785522
v -2941.140381 15.442131 -2027.759766
v -2960.336914 15.442131 -2028.046875
v -2942.020020 57.721214 -1990.842407
v -2783.623535 57.721214 -1988.473267
v -2942.020020 49.527721 -1990.842407
v -2783.623535 49.527721 -1988.473267
v -2941.516357 57.721214 -2024.524170
v -2783.119629 57.721214 -2022.155029
v -2941.516357 49.527721 -2024.524170
v -2783.119629 49.527721 -2022.155029
v -2961.169434 173.415802 -1994.292847
v -2771.949219 173.415802 -1991.462646
v -2771.050293 173.415802 -2028.642944
v -2960.321045 173.415802 -2028.078247
vt 0.759637 0.222369
vt 0.736052 0.022650
vt 0.757951 0.007880
vt 0.721108 0.247016
vt 0.755425 0.253127
vt 0.684461 0.045938
vt 0.648424 0.019249
vt 0.681183 0.015697
vt 0.375000 0.731419
vt 0.125000 0.750000
vt 0.125000 0.731419
vt 0.657002 0.232766
vt 0.720374 0.156594
vt 0.720374 0.232766
vt 0.652271 0.048587
vt 0.615633 0.024934
vt 0.640800 0.056015
vt 0.662980 0.138488
vt 0.652961 0.141921
vt 0.784732 0.010116
vt 0.784732 0.223584
vt 0.593497 0.061733
vt 0.597363 0.245345
vt 0.560893 0.067857
vt 0.629967 0.239221
vt 0.576915 0.016268
vt 0.675106 0.114000
vt 0.568936 0.137824
vt 0.596421 0.065296
vt 0.630077 0.226238
vt 0.972584 0.090584
vt 0.972584 0.015697
vt 0.925152 0.146060
vt 0.687758 0.083231
vt 0.628392 0.182696
vt 0.764686 0.107394
vt 0.764686 0.182696
vt 0.764753 0.031354
vt 0.821237 0.167647
vt 0.764753 0.167647
vt 0.628392 0.258737
vt 0.764686 0.258737
vt 0.821237 0.031354
vt 0.896538 0.167647
vt 0.896538 0.031354
vt 0.953021 0.167647
vt 0.972356 0.593105
vt 0.021800 0.369356
vt 0.971974 0.367436
vt 0.960558 0.039442
vt 0.651580 0.187241
vt 0.651580 0.039442
vt 0.630766 0.034654
vt 0.620083 0.190756
vt 0.621612 0.034564
vt 0.672885 0.202799
vt 0.698054 0.208395
vt 0.864296 0.956812
vt 0.087995 0.283210
vt 0.872801 0.282717
vt 0.641872 0.023463
vt 0.653249 0.202957
vt 0.641872 0.202957
vt 0.375000 0.525015
vt 0.125000 0.525015
vt 0.781733 0.256018
vt 0.375000 0.500000
vt 0.125000 0.500000
vt 0.917869 0.246188
vt 0.688954 0.019631
vt 0.917869 0.019631
vt 0.684461 0.250301
vt 0.650243 0.251376
vt 0.705050 0.226409
vt 0.705050 0.039139
vt 0.657592 0.039153
vt 0.628392 0.107394
vt 0.764686 0.031354
vt 0.023594 0.490538
vt 0.983733 0.697891
vt 0.023845 0.699049
vt 0.952800 0.211124
vt 0.684131 0.092692
vt 0.952929 0.092985
vt 0.973849 0.292142
vt 0.031937 0.959549
vt 0.020980 0.292520
vt 0.964713 0.595362
vt 0.017828 0.473701
vt 0.966451 0.489234
vt 0.798862 0.035231
vt 0.949144 0.221995
vt 0.798861 0.221995
vt 0.657002 0.156594
vt 0.720374 0.087944
vt 0.618167 0.153674
vt 0.594758 0.065274
vt 0.583858 0.015708
vt 0.610153 0.035231
vt 0.610153 0.221995
vt 0.743731 0.228780
vt 0.781448 0.019889
vt 0.781448 0.228985
vt 0.625000 0.731419
vt 0.625000 0.750000
vt 0.625000 0.731419
vt 0.720374 0.011772
vt 0.657002 0.087944
vt 0.657002 0.011772
vt 0.619818 0.094378
vt 0.660686 0.061231
vt 0.665158 0.077265
vt 0.797266 0.239608
vt 0.737866 0.188419
vt 0.797266 0.140799
vt 0.608232 0.197545
vt 0.661835 0.015720
vt 0.661835 0.248082
vt 0.670991 0.219949
vt 0.737605 0.188820
vt 0.738228 0.189060
vt 0.695619 0.075659
vt 0.738528 0.221209
vt 0.695619 0.221209
vt 0.676272 0.138920
vt 0.747232 0.088081
vt 0.747468 0.088189
vt 0.652958 0.070025
vt 0.702320 0.228003
vt 0.652958 0.228003
vt 0.788072 0.140753
vt 0.747322 0.087860
vt 0.788072 0.031359
vt 0.715483 0.066257
vt 0.661880 0.237813
vt 0.661880 0.015720
vt 0.625000 0.525015
vt 0.625000 0.500000
vt 0.625000 0.500000
vt 0.625000 0.731419
vt 0.823299 0.228970
vt 0.823299 0.019874
vt 0.701880 0.228765
vt 0.743731 0.019683
vt 0.625000 0.500000
vt 0.921737 0.228917
vt 0.886557 0.019834
vt 0.921737 0.019821
vt 0.823360 0.228765
vt 0.858540 0.019681
vt 0.858541 0.228777
vt 0.886557 0.228930
vt 0.586339 0.059102
vt 0.586665 0.075040
vt 0.694703 0.038783
vt 0.694703 0.093458
vt 0.708695 0.214643
vt 0.610334 0.027507
vt 0.708695 0.027416
vt 0.580138 0.169458
vt 0.618167 0.238157
vt 0.638239 0.126189
vt 0.618204 0.051490
vt 0.550529 0.525015
vt 0.550529 0.525015
vt 0.550529 0.525015
vt 0.596000 0.135418
vt 0.757539 0.255213
vt 0.707471 0.019755
vt 0.757539 0.019755
vt 0.612137 0.236538
vt 0.593177 0.014794
vt 0.612137 0.014794
vt 0.550529 0.731419
vt 0.625000 0.731419
vt 0.625000 0.731419
vt 0.550529 0.525015
vt 0.625000 0.525015
vt 0.550529 0.525015
vt 0.695292 0.255213
vt 0.695292 0.019755
vt 0.550529 0.525015
vt 0.645224 0.019755
vt 0.645224 0.255213
vt 0.550529 0.731419
vt 0.625000 0.731419
vt 0.385085 0.195820
vt 0.475204 0.027142
vt 0.475204 0.195820
vt 0.446909 0.193338
vt 0.348564 0.019606
vt 0.446909 0.019606
vt 0.375000 0.750000
vt 0.953021 0.031354
vt 0.022182 0.595025
vt 0.960558 0.187241
vt 0.910658 0.224680
vt 0.629237 0.190845
vt 0.710883 0.017054
vt 0.079490 0.957305
vt 0.653249 0.023463
vt 0.688954 0.246188
vt 0.628392 0.031354
vt 0.983481 0.489380
vt 0.684002 0.210830
vt 0.984806 0.959172
vt 0.016090 0.579829
vt 0.949144 0.035230
vt 0.625000 0.750000
vt 0.738067 0.188674
vt 0.608232 0.015720
vt 0.669464 0.154749
vt 0.738528 0.035204
vt 0.669464 0.038005
vt 0.702320 0.023487
vt 0.747420 0.088012
vt 0.715483 0.237813
vt 0.625000 0.525015
vt 0.625000 0.750000
vt 0.701880 0.019669
vt 0.625000 0.525015
vt 0.823360 0.019669
vt 0.610334 0.214734
vt 0.631185 0.015708
vt 0.550529 0.525015
vt 0.707471 0.255213
vt 0.593177 0.236538
vt 0.625000 0.525015
vt 0.625000 0.525015
vt 0.550529 0.731419
vt 0.385085 0.027142
vt 0.348564 0.193338
vn 0.9999 0.0113 0.0013
vn 0.9999 0.0000 0.0150
vn -0.0149 0.0000 0.9999
vn 0.0000 -1.0000 0.0000
vn -0.9999 0.0000 -0.0150
vn -0.9999 0.0000 -0.0149
vn -0.9998 0.0023 -0.0222
vn -0.0143 0.2942 0.9556
vn 0.0149 -0.0796 -0.9967
vn -0.9997 -0.0171 -0.0150
vn 0.0142 0.3066 -0.9517
vn 0.0005 -0.9994 -0.0336
vn -0.1065 0.9942 0.0171
vn 0.9998 -0.0053 0.0213
vn 0.0150 0.0000 -0.9999
vn -0.0150 0.0000 0.9999
vn -0.0003 0.9998 0.0195
vn 0.0142 -0.3151 -0.9490
vn -0.0079 0.2933 0.9560
vn 0.0216 0.9996 0.0199
vn 0.0149 0.0000 -0.9999
vn 0.0150 -0.0009 -0.9999
vn 0.0150 0.0003 -0.9999
vn -0.0149 -0.0003 0.9999
vn -0.9999 0.0004 -0.0149
vn 0.0000 1.0000 -0.0000
vn -0.9998 -0.0060 -0.0213
vn 0.9997 0.0000 0.0242
vn 0.9997 0.0000 0.0251
vn -0.9997 -0.0064 -0.0217
vn 0.9999 0.0054 0.0150
vn -0.9999 -0.0054 -0.0150
vn -0.0150 -0.0003 0.9999
vn -0.9999 0.0005 -0.0150
vn 0.9999 -0.0005 0.0150
vn -0.0149 0.0009 0.9999
vn 0.9999 -0.0004 0.0150
vn 0.9999 0.0001 0.0149
vn -0.9997 0.0000 -0.0251
vn 0.9994 0.0248 0.0242
vn 0.9997 0.0171 0.0150
vn -0.9998 0.0059 -0.0213
vn -0.0453 0.2901 0.9559
vn -0.9999 -0.0117 -0.0022
vn -0.0139 0.2648 -0.9642
vn 0.9998 -0.0020 0.0222
vn 0.0207 0.2939 -0.9556
vn 0.0149 -0.0009 -0.9999
vn -0.9997 0.0000 -0.0242
vn 0.9998 0.0060 0.0213
vn 0.9997 0.0064 0.0217
vn 0.0149 0.0003 -0.9999
vn -0.0150 0.0009 0.9999
vn 0.9999 0.0000 0.0149
usemtl Material
s off
f 7/1/1 9/2/1 10/3/1
f 19/4/2 7/1/2 18/5/2
f 31/6/3 20/7/3 35/8/3
f 24/9/4 8/10/4 21/11/4
f 53/12/5 44/13/5 54/14/5
f 5/15/6 17/16/6 20/7/6
f 11/17/7 16/18/7 15/19/7
f 7/1/8 26/20/8 23/21/8
f 1/22/9 38/23/9 37/24/9
f 5/15/10 11/25/10 1/22/10
f 28/26/11 13/27/11 27/28/11
f 38/29/12 15/19/12 39/30/12
f 10/31/13 28/26/13 26/32/13
f 9/33/14 14/34/14 10/31/14
f 20/35/6 2/36/6 6/37/6
f 29/38/15 4/39/15 24/40/15
f 35/41/3 6/37/3 36/42/3
f 19/43/2 8/44/2 4/39/2
f 18/45/16 21/46/16 8/44/16
f 40/47/15 24/48/15 32/49/15
f 26/50/17 34/51/17 33/52/17
f 9/33/12 27/28/12 13/27/12
f 34/53/11 27/54/11 39/55/11
f 22/56/9 9/2/9 3/57/9
f 31/58/8 26/59/8 33/60/8
f 22/61/18 73/62/18 37/63/18
f 32/64/4 21/11/4 36/65/4
f 7/1/16 30/66/16 18/5/16
f 2/67/4 36/65/4 6/68/4
f 49/69/2 42/70/2 50/71/2
f 5/15/19 33/72/19 12/73/19
f 15/19/11 34/74/11 39/30/11
f 33/75/20 16/18/20 12/76/20
f 17/77/21 32/78/21 2/36/21
f 30/79/16 36/80/16 21/81/16
f 25/82/12 39/83/12 27/84/12
f 37/85/9 25/86/9 22/87/9
f 23/88/16 35/89/16 30/90/16
f 41/91/15 45/92/15 46/93/15
f 43/94/21 48/95/21 44/13/21
f 46/96/22 66/97/22 65/98/22
f 52/99/5 46/93/5 51/100/5
f 43/101/23 60/102/23 47/103/23
f 52/104/24 64/105/24 62/106/24
f 56/107/2 47/108/2 55/109/2
f 54/110/25 67/111/25 72/112/25
f 3/113/26 52/114/26 22/115/26
f 22/116/27 51/117/27 29/118/27
f 19/119/4 51/120/4 49/121/4
f 3/122/28 49/123/28 50/124/28
f 40/125/4 54/126/4 56/127/4
f 37/128/29 56/129/29 55/130/29
f 37/131/26 53/132/26 1/133/26
f 1/134/30 54/135/30 17/136/30
f 63/137/26 59/138/26 61/139/26
f 64/105/26 57/140/26 62/106/26
f 55/141/31 60/102/31 63/142/31
f 53/143/32 59/144/32 43/101/32
f 53/145/33 63/137/33 61/139/33
f 50/146/31 58/147/31 64/148/31
f 52/149/32 57/150/32 41/151/32
f 41/151/23 58/147/23 42/152/23
f 70/153/4 66/97/4 69/154/4
f 72/112/4 68/155/4 71/156/4
f 51/157/34 65/158/34 70/159/34
f 49/160/35 66/97/35 45/161/35
f 54/110/36 71/156/36 56/162/36
f 44/163/22 68/155/22 67/111/22
f 56/164/37 68/165/37 48/166/37
f 51/167/36 69/154/36 49/160/36
f 74/168/26 77/169/26 73/170/26
f 40/171/4 76/172/4 29/173/4
f 29/174/38 74/175/38 22/176/38
f 40/177/5 73/178/5 75/179/5
f 77/169/15 80/180/15 79/181/15
f 73/178/5 79/182/5 75/179/5
f 75/183/4 80/180/4 76/184/4
f 76/185/2 78/186/2 74/175/2
f 1/187/39 84/188/39 53/189/39
f 3/190/40 83/191/40 82/192/40
f 7/1/41 3/57/41 9/2/41
f 19/4/2 3/57/2 7/1/2
f 31/6/3 5/15/3 20/7/3
f 24/9/4 4/193/4 8/10/4
f 53/12/5 43/94/5 44/13/5
f 5/15/5 1/22/5 17/16/5
f 11/17/42 12/76/42 16/18/42
f 7/1/43 10/3/43 26/20/43
f 1/22/9 11/25/9 38/23/9
f 5/15/44 12/73/44 11/25/44
f 28/26/45 14/34/45 13/27/45
f 38/29/12 11/17/12 15/19/12
f 10/31/13 14/34/13 28/26/13
f 9/33/46 13/27/46 14/34/46
f 20/35/6 17/77/6 2/36/6
f 29/38/21 19/43/21 4/39/21
f 35/41/3 20/35/3 6/37/3
f 19/43/2 18/45/2 8/44/2
f 18/45/3 30/194/3 21/46/3
f 40/47/15 29/195/15 24/48/15
f 26/50/17 28/196/17 34/51/17
f 9/33/12 25/197/12 27/28/12
f 34/53/11 28/198/11 27/54/11
f 22/56/9 25/199/9 9/2/9
f 31/58/8 23/200/8 26/59/8
f 22/61/18 74/201/18 73/62/18
f 32/64/4 24/9/4 21/11/4
f 7/1/16 23/21/16 30/66/16
f 2/67/4 32/64/4 36/65/4
f 49/69/2 45/202/2 42/70/2
f 5/15/8 31/6/8 33/72/8
f 15/19/47 16/18/47 34/74/47
f 33/75/20 34/74/20 16/18/20
f 17/77/21 40/203/21 32/78/21
f 30/79/16 35/204/16 36/80/16
f 25/82/12 38/205/12 39/83/12
f 37/85/9 38/206/9 25/86/9
f 23/88/16 31/207/16 35/89/16
f 41/91/15 42/208/15 45/92/15
f 43/94/15 47/108/15 48/95/15
f 46/96/48 45/161/48 66/97/48
f 52/99/5 41/91/5 46/93/5
f 43/101/23 59/144/23 60/102/23
f 52/104/24 50/209/24 64/105/24
f 56/107/2 48/95/2 47/108/2
f 54/110/34 44/163/34 67/111/34
f 3/113/26 50/210/26 52/114/26
f 22/116/49 52/211/49 51/117/49
f 19/119/4 29/212/4 51/120/4
f 3/122/50 19/213/50 49/123/50
f 40/125/4 17/214/4 54/126/4
f 37/128/51 40/215/51 56/129/51
f 37/131/26 55/216/26 53/132/26
f 1/134/39 53/217/39 54/135/39
f 63/137/26 60/218/26 59/138/26
f 64/105/26 58/219/26 57/140/26
f 55/141/31 47/103/31 60/102/31
f 53/143/32 61/220/32 59/144/32
f 53/145/33 55/221/33 63/137/33
f 50/146/31 42/152/31 58/147/31
f 52/149/32 62/222/32 57/150/32
f 41/151/52 57/150/52 58/147/52
f 70/153/4 65/98/4 66/97/4
f 72/112/4 67/111/4 68/155/4
f 51/157/34 46/223/34 65/158/34
f 49/160/35 69/154/35 66/97/35
f 54/110/53 72/112/53 71/156/53
f 44/163/48 48/224/48 68/155/48
f 56/164/35 71/225/35 68/165/35
f 51/167/53 70/153/53 69/154/53
f 74/168/26 78/226/26 77/169/26
f 40/171/4 75/227/4 76/172/4
f 29/174/54 76/185/54 74/175/54
f 40/177/5 37/228/5 73/178/5
f 77/169/15 78/226/15 80/180/15
f 73/178/5 77/229/5 79/182/5
f 75/183/4 79/181/4 80/180/4
f 76/185/2 80/230/2 78/186/2
f 1/187/39 81/231/39 84/188/39
f 3/190/40 50/232/40 83/191/40
