# Blender v2.93.0 OBJ File: ''
# www.blender.org
mtllib calle.mtl
o Cube_Cube.001
v -201.934204 -0.170009 2491.303223
v -201.934204 -0.168383 -2496.739014
v 183.065552 -0.168383 -2496.739014
v 183.065552 -0.170009 2491.303223
v -201.934204 2.935572 2491.303223
v -201.934204 2.937197 -2496.739014
v 183.065552 2.937197 -2496.739014
v 183.065552 2.935572 2491.303223
vt 0.075021 0.000027
vt 0.075021 0.999972
vt 0.000027 0.999973
vt 0.000028 0.000027
vt 0.000013 0.999901
vt 0.016970 0.000099
vt 0.016970 0.999987
vt 0.375000 0.500000
vt 0.625000 0.250000
vt 0.625000 0.500000
vt 0.075021 0.000027
vt 0.000027 0.999973
vt 0.000027 0.000027
vt 0.016970 0.000099
vt 0.000013 0.999901
vt 0.000013 0.000013
vt 0.000013 0.000013
vt 0.375000 1.000000
vt 0.375000 0.750000
vt 0.625000 0.750000
vt 0.075021 0.999973
vt 0.016970 0.999987
vt 0.375000 0.250000
vt 0.625000 1.000000
vn 0.0000 -1.0000 -0.0000
vn -1.0000 0.0000 0.0000
vn 0.0000 0.0000 -1.0000
vn 0.0000 1.0000 0.0000
vn 1.0000 0.0000 0.0000
vn 0.0000 0.0000 1.0000
usemtl Material.002
s 1
f 1/1/1 2/2/1 3/3/1
f 1/1/1 3/3/1 4/4/1
f 2/5/2 5/6/2 6/7/2
f 3/8/3 6/9/3 7/10/3
f 8/11/4 6/12/4 5/13/4
f 4/14/5 7/15/5 8/16/5
f 2/5/2 1/17/2 5/6/2
f 1/18/6 4/19/6 8/20/6
f 8/11/4 7/21/4 6/12/4
f 4/14/5 3/22/5 7/15/5
f 3/8/3 2/23/3 6/9/3
f 1/18/6 8/20/6 5/24/6
